# xmcd
#
# Track frame offsets:
#	150
#	17480
#	35082
#	52550
#	71133
#	87867
#	106829
#	123590
#	140583
#	160197
#	179080
#	195994
#	219045
#	236780
#	256314
#	274485
#	292548
#	307694
#
# Disc length: 4309 seconds
#
# Revision: 2
# Processed by: cddbd v1.5.2PL0 Copyright (c) Steve Scherf et al.
# Submitted via: audiograbber 1.83.01
#
DISCID=f310d312
DTITLE=Usher - Looking 4 Myself (Deluxe Edition)
DYEAR=2012
DGENRE=R&B
TTITLE0=Can't Stop Won't Stop
TTITLE1=Scream
TTITLE2=Climax
TTITLE3=I Care For U
TTITLE4=Show Me
TTITLE5=Lemme See (feat. Rick Ross)
TTITLE6=Twisted (feat. Pharrell)
TTITLE7=Dive
TTITLE8=What Happened To U
TTITLE9=Looking 4 Myself (feat. Luke Steele)
TTITLE10=Numb
TTITLE11=Lessons For The Lover
TTITLE12=Sins Of My Father
TTITLE13=Euphoria
TTITLE14=I.F.U.
TTITLE15=Say The Words
TTITLE16=2nd Round
TTITLE17=Hot Thing (feat. A$AP Rocky)
EXTD=
EXTT0=
EXTT1=
EXTT2=
EXTT3=
EXTT4=
EXTT5=
EXTT6=
EXTT7=
EXTT8=
EXTT9=
EXTT10=
EXTT11=
EXTT12=
EXTT13=
EXTT14=
EXTT15=
EXTT16=
EXTT17=
PLAYORDER=
